<svg width="19" height="20" viewBox="0 0 19 20" fill="none" xmlns="http://www.w3.org/2000/svg">
<path d="M18.9479 12.6204C19.0455 13.028 18.9813 13.4583 18.7691 13.8181C18.3601 14.6507 17.7398 15.357 16.9725 15.8643C16.7713 15.9901 16.5455 16.0693 16.3108 16.0965C16.0762 16.1236 15.8385 16.098 15.6147 16.0215C15.4259 15.9444 15.22 15.9214 15.0192 15.9548C14.8185 15.9882 14.6305 16.0767 14.4757 16.2109C14.3008 16.4207 14.0993 16.6059 13.8766 16.7619C13.5174 16.9111 13.1786 17.1067 12.8686 17.344C12.6059 17.6272 12.6059 17.895 12.9055 18.0444C13.2909 18.2384 13.5682 18.4505 13.322 18.8003C13.1611 19.0293 12.9055 18.9659 12.7083 18.7771C12.5112 18.5882 12.2485 18.3522 12.2701 18.541C12.2918 18.7299 12.4673 19.1037 12.3725 19.3598C12.2854 19.5958 12.0953 19.7691 11.9197 19.6268C11.72 19.4652 11.8905 18.8243 11.7149 18.9187C11.5394 19.0131 11.0154 19.4542 10.8882 19.3197C10.6974 19.1166 10.8195 18.7234 11.0853 18.5436C11.6113 18.1815 11.1438 18.1659 10.8805 18.2131C10.6173 18.2604 10.5117 17.7236 10.822 17.6149C11.4065 17.4099 11.7423 17.4888 11.6399 16.7969C11.614 16.7058 11.5703 16.621 11.5114 16.5476C11.4525 16.4741 11.3796 16.4135 11.2971 16.3693C11.2147 16.3252 11.1243 16.2984 11.0314 16.2907C10.9385 16.2829 10.845 16.2943 10.7565 16.3241C9.80257 16.5291 8.40343 15.7104 7.90101 15.0488C7.20144 14.1324 7.0539 13.3402 6.74736 13.3674C6.44082 13.3945 6.2583 13.7767 5.97338 13.824C5.76475 13.828 5.55834 13.7798 5.37234 13.6836C5.18635 13.5874 5.02649 13.4462 4.90686 13.2723C4.62194 12.8707 4.58569 12.4381 4.27915 12.5325C3.97261 12.6269 3.94336 13.1863 3.65844 13.1863C3.37353 13.1863 3.15412 12.9975 3.32964 12.6689C3.50517 12.3404 4.12588 11.9918 3.53379 11.9686C2.9417 11.9453 2.85775 11.8709 2.91308 11.5592C2.96089 11.4413 3.04744 11.3439 3.15796 11.2837C3.26848 11.2234 3.39614 11.204 3.51916 11.2287C3.78182 11.2759 4.00823 11.2048 3.83333 11.016C3.65844 10.8271 2.94997 10.3945 3.44603 10.205C3.83906 10.0556 4.1615 10.6144 4.24926 10.3783C4.33702 10.1423 4.20538 9.59127 4.59968 9.60679C4.76555 9.64884 4.90936 9.75374 5.00169 9.90004C5.09402 10.0463 5.12789 10.223 5.09638 10.3938C5.03278 10.8187 5.02324 11.512 5.50531 11.3225C5.74709 11.2406 5.95315 11.0754 6.08785 10.8554C6.22255 10.6354 6.27744 10.3745 6.24303 10.1177C6.24303 9.43283 6.01663 8.85079 6.04588 7.96869C6.01703 7.22305 6.27374 6.49511 6.76199 5.93803C7.37916 5.34153 7.83438 4.59305 8.08354 3.7651C8.15788 3.43046 8.13998 3.08145 8.03182 2.75649C7.92365 2.43153 7.7294 2.14321 7.47046 1.92329C6.87211 1.3104 6.09696 0.907789 5.25791 0.774094C4.54002 0.674494 3.80949 0.806598 3.16938 1.15177C2.47251 1.59163 1.87516 2.17658 1.41664 2.86812C1.12751 3.28937 0.929451 3.76813 0.835507 4.27287C0.741563 4.77761 0.753867 5.29685 0.87161 5.7964C0.87161 5.7964 0.87161 5.94321 0.840448 5.81193C0.682136 5.20683 0.630248 4.57805 0.687178 3.95459C0.896843 3.1043 1.34309 2.33348 1.97248 1.73445C2.35738 1.33145 2.8186 1.01193 3.32829 0.795192C3.83798 0.57845 4.38557 0.468975 4.93802 0.473376C5.96097 0.537144 6.93203 0.953429 7.69114 1.65361C8.74813 2.73167 9.04068 3.97076 8.12042 5.19885C7.20017 6.42694 7.30574 7.03096 7.34963 8.43237C7.39287 9.8021 8.58214 11.5715 9.61178 12.5241C10.5718 13.4689 11.8385 14.0241 13.1732 14.0852C14.3138 14.2697 15.4825 14.1112 16.5356 13.6293C17.2403 13.3331 18.8887 12.6547 18.8887 12.6547L18.9479 12.6204Z" fill="#007674"/>
<path d="M0.842357 5.86884C0.676451 5.24769 0.620674 4.60145 0.67764 3.96041C0.887305 3.11012 1.33355 2.3393 1.96294 1.74027C2.34858 1.3391 2.81005 1.02143 3.31959 0.806373C3.82913 0.591316 4.37619 0.483324 4.92784 0.488897C5.9508 0.552666 6.92186 0.968949 7.68097 1.66913C8.73796 2.74719 8.9739 3.93648 8.05365 5.16134C7.64935 5.62561 7.34187 6.16846 7.14981 6.75704C6.95775 7.34561 6.8851 7.96769 6.93625 8.58564C6.97949 9.95537 8.34556 11.9233 9.37584 12.8759C10.3881 13.8877 11.7143 14.511 13.1281 14.6395C14.3919 14.7541 15.6619 14.5058 16.7938 13.9229C17.5482 13.5568 18.2677 13.1208 18.9434 12.6204C18.8575 12.4623 18.7563 12.3133 18.6413 12.1755C18.1745 11.7034 16.8892 11.7823 16.2685 11.75C15.7244 11.7181 15.1808 11.8208 14.6843 12.0494C14.3116 12.2622 13.8696 12.6088 13.4715 12.3171C13.4035 12.2527 13.3527 12.1718 13.3238 12.0819C13.295 11.9921 13.2891 11.8962 13.3066 11.8034C13.3242 11.7106 13.3646 11.6238 13.4241 11.5513C13.4837 11.4787 13.5604 11.4227 13.647 11.3885C14.0248 11.2869 14.8 11.6394 14.9031 11.3885C14.9616 11.2468 14.8299 11.1369 14.5215 11.0425C14.2385 10.9552 14.3466 10.5251 14.821 10.4992C15.2955 10.4734 15.7317 10.3414 15.6535 10.0032C15.6026 9.7827 15.0767 10.0032 14.7409 10.1132C14.2582 10.2716 14.4611 9.80145 14.6239 9.45934C14.7555 9.18449 14.4929 9.04222 14.2735 9.07132C13.909 9.12306 13.9644 9.61843 13.7691 9.78722C13.3971 10.1106 13.1484 9.38627 12.915 9.48068C12.5334 9.63589 12.9735 10.0162 13.1122 10.236C13.2839 10.5077 12.7179 10.7321 12.2574 10.9474C11.797 11.1628 11.8122 11.8463 11.8409 12.1762C11.8631 12.4284 11.4542 12.3656 10.9429 11.9556C10.3552 11.4848 10.8119 11.089 11.1031 11.0114C11.313 10.9605 11.5065 10.8555 11.665 10.7068C11.8236 10.558 11.942 10.3703 12.0088 10.1617C12.162 9.87841 11.8956 9.17091 12.0959 8.83915C12.3153 8.477 12.5926 8.62639 12.8991 8.65096C13.2057 8.67554 13.5415 8.71563 13.6146 8.46924C13.7024 8.17822 13.4511 8.23966 12.9716 8.17822C12.6066 8.13101 12.7236 7.67444 12.9786 7.45391C13.2833 7.19135 13.3806 6.76129 13.1618 6.63518C12.8788 6.47286 12.5411 7.14673 12.2339 7.45391C11.9267 7.7611 11.8129 7.30905 11.8612 6.98182C11.9344 6.4942 11.7442 6.30536 11.5108 6.27367C10.9384 6.19672 11.0949 6.90292 11.1165 7.13897C11.1381 7.37501 11.0872 7.55609 10.7807 7.43839C10.4742 7.32069 10.1574 7.16225 10.0945 7.46943C10.036 7.75334 10.63 7.93765 10.9995 8.25647C11.0749 8.37211 11.1265 8.50208 11.1512 8.63855C11.1759 8.77503 11.1732 8.91517 11.1432 9.05054C11.1132 9.18591 11.0565 9.31369 10.9766 9.42619C10.8967 9.53868 10.7952 9.63356 10.6783 9.70509C10.2109 9.81568 10.0646 9.3313 9.23211 9.31125C8.98913 9.32405 8.74988 9.24643 8.55909 9.09289C8.36831 8.93935 8.23905 8.72041 8.19547 8.477C8.06064 7.72229 9.11572 6.96565 9.53928 6.35193C9.90775 5.80832 10.1014 5.1619 10.0935 4.50172C10.0857 3.84155 9.8767 3.20009 9.4954 2.66571C8.82653 1.51722 7.76841 0.656481 6.51968 0.24509C5.27786 -0.155303 3.93363 -0.0685592 2.75155 0.488251C2.22226 0.799847 1.7613 1.21834 1.39708 1.71794C1.03286 2.21755 0.773088 2.78769 0.633758 3.39325C0.508683 4.22357 0.580195 5.07226 0.842357 5.86884Z" fill="#007674"/>
</svg>
